<svg width="1515" height="341" viewBox="0 0 1515 341" fill="none" xmlns="http://www.w3.org/2000/svg">
<g clip-path="url(#clip0_394_781)">
<mask id="mask0_394_781" style="mask-type:luminance" maskUnits="userSpaceOnUse" x="0" y="-43" width="1039" height="735">
<path d="M1039 -43H0V692H1039V-43Z" fill="white"/>
</mask>
<g mask="url(#mask0_394_781)">
<path d="M1039 -43H0V692H1039V-43Z" fill="#372579"/>
<mask id="mask1_394_781" style="mask-type:luminance" maskUnits="userSpaceOnUse" x="0" y="-43" width="148" height="148">
<path d="M147.201 -42.8518H0.296143V104.148H147.201V-42.8518Z" fill="white"/>
</mask>
<g mask="url(#mask1_394_781)">
<path d="M303.069 -42.4612C299.323 -35.1847 295.797 -27.6877 292.051 -20.4112C268.473 26.9963 244.674 74.4038 221.096 121.811C214.706 134.38 200.382 142.318 186.279 141.215C171.515 140.113 161.599 132.616 154.988 119.606C128.765 67.7888 102.543 15.9713 76.0999 -35.6257C75.4388 -36.9487 74.7778 -38.0512 74.1167 -39.3742C73.8963 -39.3742 73.676 -39.3742 73.4556 -39.3742C73.4556 -38.2717 73.4556 -37.3897 73.4556 -36.2872C73.4556 14.6483 73.4556 65.5838 73.4556 116.519C73.4556 126.442 71.0317 135.262 64.2 142.538C54.0637 153.563 41.2829 156.871 27.1799 153.122C13.2973 149.374 4.48296 140.113 1.17758 126.001C0.516502 123.134 0.296143 120.268 0.296143 117.401C0.296143 18.8378 0.296143 -79.7257 0.296143 -178.289C0.296143 -196.15 11.0937 -210.262 27.6207 -214.451C44.8086 -218.641 61.5557 -210.923 69.7095 -194.827C104.526 -126.472 139.343 -57.8962 173.939 10.4588C178.787 19.9403 183.635 29.4218 188.482 38.9033C188.923 39.5648 189.364 40.4468 190.025 41.5493C190.686 40.4468 191.127 39.5648 191.568 38.4623C230.131 -39.1537 268.473 -116.99 307.036 -194.606C313.646 -208.057 324.665 -215.554 339.87 -215.554C354.193 -215.554 365.211 -209.159 372.483 -196.591C375.568 -191.299 376.669 -185.345 376.669 -179.171C376.669 -94.0582 376.669 -8.94515 376.669 75.9473C376.669 90.0593 376.669 104.392 376.669 118.504C376.669 135.703 363.228 151.138 346.04 153.784C327.97 156.65 310.561 146.287 305.493 129.308C304.171 125.119 303.73 120.709 303.73 116.299C303.51 64.4813 303.73 12.4433 303.73 -39.3742C303.73 -40.4767 303.73 -41.5792 303.73 -42.6817C303.51 -42.4612 303.29 -42.4612 303.069 -42.4612Z" fill="#28176A"/>
</g>
<mask id="mask2_394_781" style="mask-type:luminance" maskUnits="userSpaceOnUse" x="147" y="-43" width="148" height="148">
<path d="M294.107 -42.8518H147.202V104.148H294.107V-42.8518Z" fill="white"/>
</mask>
<g mask="url(#mask2_394_781)">
<path d="M338.259 25.7237C338.259 27.4877 338.259 28.5902 338.259 29.9132C338.259 116.57 338.259 203.006 338.259 289.662C338.259 302.231 333.632 312.594 323.495 320.091C302.561 335.306 269.948 325.163 265.541 296.277C265.101 293.631 265.321 290.765 265.321 288.119C265.321 202.124 265.321 116.129 265.321 29.9132C265.321 25.2827 265.541 25.9442 261.355 25.9442C235.132 25.9442 208.909 25.9442 182.908 25.9442C176.077 25.9442 169.466 24.6212 163.296 21.0932C151.617 14.2577 146.989 3.45319 147.21 -9.55631C147.65 -26.5348 158.448 -38.8828 175.195 -42.1903C177.839 -42.6313 180.484 -42.8518 183.128 -42.8518C262.236 -42.8518 341.124 -42.8518 420.233 -42.8518C439.404 -42.8518 451.524 -29.8423 454.609 -18.3763C460.999 4.55569 445.133 25.7237 420.894 25.9442C394.671 25.9442 368.449 25.9442 342.226 25.9442C340.904 25.7237 339.802 25.7237 338.259 25.7237Z" fill="#28176A"/>
</g>
<mask id="mask3_394_781" style="mask-type:luminance" maskUnits="userSpaceOnUse" x="0" y="104" width="148" height="148">
<path d="M147.201 104.148H0.296143V251.148H147.201V104.148Z" fill="white"/>
</mask>
<g mask="url(#mask3_394_781)">
<path d="M160.572 72.1988C156.825 79.4753 153.3 86.9723 149.554 94.2488C125.975 141.656 102.176 189.064 78.5978 236.471C72.2074 249.04 57.8841 256.978 43.7812 255.875C29.0171 254.773 19.1009 247.276 12.4901 234.266C-13.7326 182.449 -39.9553 130.631 -66.3984 79.0343C-67.0595 77.7113 -67.7205 76.6088 -68.3816 75.2858C-68.602 75.2858 -68.8223 75.2858 -69.0427 75.2858C-69.0427 76.3883 -69.0427 77.2703 -69.0427 78.3728C-69.0427 129.308 -69.0427 180.244 -69.0427 231.179C-69.0427 241.102 -71.4666 249.922 -78.2977 257.198C-88.4342 268.223 -101.215 271.531 -115.318 267.782C-129.2 264.034 -138.015 254.773 -141.321 240.661C-141.982 237.794 -142.202 234.928 -142.202 232.061C-142.202 133.498 -142.202 34.9343 -142.202 -63.6292C-142.202 -81.4897 -131.404 -95.6017 -114.877 -99.7912C-97.6892 -103.981 -80.942 -96.2632 -72.7888 -80.1667C-37.9721 -11.8117 -3.15534 56.7638 31.441 125.119C36.2889 134.6 41.1368 144.082 45.9847 153.563C46.4254 154.225 46.8662 155.107 47.5272 156.209C48.1883 155.107 48.629 154.225 49.0697 153.122C87.6325 75.5063 125.975 -2.33018 164.538 -79.9462C171.149 -93.3967 182.167 -100.894 197.371 -100.894C211.695 -100.894 222.713 -94.4992 229.984 -81.9307C233.069 -76.6387 234.171 -70.6852 234.171 -64.5112C234.171 20.6018 234.171 105.715 234.171 190.607C234.171 204.719 234.171 219.052 234.171 233.164C234.171 250.363 220.729 265.798 203.541 268.444C185.472 271.31 168.064 260.947 162.996 243.968C161.673 239.779 161.233 235.369 161.233 230.959C161.012 179.141 161.233 127.103 161.233 75.2858C161.233 74.1833 161.233 73.0808 161.233 71.9783C161.012 72.1988 160.792 72.1988 160.572 72.1988Z" fill="#28176A"/>
</g>
<mask id="mask4_394_781" style="mask-type:luminance" maskUnits="userSpaceOnUse" x="147" y="104" width="148" height="148">
<path d="M294.107 104.148H147.202V251.148H294.107V104.148Z" fill="white"/>
</mask>
<g mask="url(#mask4_394_781)">
<path d="M220 172.724C220 174.488 220 175.59 220 176.913C220 263.57 220 350.006 220 436.662C220 449.231 215.374 459.594 205.237 467.091C184.303 482.306 151.69 472.163 147.283 443.277C146.842 440.631 147.063 437.765 147.063 435.119C147.063 349.124 147.063 263.129 147.063 176.913C147.063 172.283 147.283 172.944 143.096 172.944C116.873 172.944 90.6509 172.944 64.6486 172.944C57.8174 172.944 51.2067 171.621 45.0367 168.093C33.3577 161.258 28.7302 150.453 28.9506 137.444C29.3913 120.465 40.1889 108.117 56.936 104.81C59.5804 104.369 62.2247 104.148 64.869 104.148C143.978 104.148 222.866 104.148 301.974 104.148C321.145 104.148 333.265 117.158 336.35 128.624C342.74 151.556 326.874 172.724 302.635 172.944C276.412 172.944 250.189 172.944 223.967 172.944C222.645 172.724 221.543 172.724 220 172.724Z" fill="#28176A"/>
</g>
<mask id="mask5_394_781" style="mask-type:luminance" maskUnits="userSpaceOnUse" x="0" y="251" width="148" height="148">
<path d="M147.201 251.148H0.296143V398.148H147.201V251.148Z" fill="white"/>
</mask>
<g mask="url(#mask5_394_781)">
<path d="M73.8969 302.254C70.1508 309.53 66.6251 317.027 62.879 324.304C39.3008 371.711 15.502 419.119 -8.07639 466.526C-14.4668 479.095 -28.7901 487.033 -42.8931 485.93C-57.6572 484.828 -67.5735 477.331 -74.1843 464.321C-100.407 412.504 -126.63 360.686 -153.072 309.089C-153.734 307.766 -154.395 306.664 -155.056 305.341C-155.276 305.341 -155.496 305.341 -155.717 305.341C-155.717 306.443 -155.717 307.325 -155.717 308.428C-155.717 359.363 -155.717 410.299 -155.717 461.234C-155.717 471.157 -158.141 479.977 -164.972 487.253C-175.108 498.278 -187.89 501.586 -201.993 497.837C-215.875 494.089 -224.689 484.828 -227.995 470.716C-228.656 467.849 -228.876 464.983 -228.876 462.116C-228.876 363.553 -228.876 264.989 -228.876 166.426C-228.876 148.565 -218.079 134.453 -201.552 130.264C-184.364 126.074 -167.616 133.792 -159.463 149.888C-124.646 218.243 -89.8297 286.819 -55.2332 355.174C-50.3853 364.655 -45.5374 374.137 -40.6895 383.618C-40.2488 384.28 -39.8081 385.162 -39.147 386.264C-38.4859 385.162 -38.0452 384.28 -37.6045 383.177C0.958349 305.561 39.3008 227.725 77.8633 150.109C84.4747 136.658 95.4926 129.161 110.697 129.161C125.021 129.161 136.038 135.556 143.31 148.124C146.395 153.416 147.497 159.37 147.497 165.544C147.497 250.657 147.497 335.77 147.497 420.662C147.497 434.774 147.497 449.107 147.497 463.219C147.497 480.418 134.055 495.853 116.867 498.499C98.798 501.365 81.3897 491.002 76.3208 474.023C74.9987 469.834 74.558 465.424 74.558 461.014C74.3376 409.196 74.558 357.158 74.558 305.341C74.558 304.238 74.558 303.136 74.558 302.033C74.3376 302.254 74.1173 302.254 73.8969 302.254Z" fill="#28176A"/>
</g>
<mask id="mask6_394_781" style="mask-type:luminance" maskUnits="userSpaceOnUse" x="147" y="251" width="148" height="148">
<path d="M294.107 251.148H147.202V398.148H294.107V251.148Z" fill="white"/>
</mask>
<g mask="url(#mask6_394_781)">
<path d="M257.461 335.159C257.461 336.923 257.461 338.025 257.461 339.348C257.461 426.005 257.461 512.441 257.461 599.1C257.461 611.666 252.834 622.027 242.697 629.525C221.763 644.741 189.15 634.599 184.743 605.715C184.302 603.065 184.523 600.202 184.523 597.552C184.523 511.559 184.523 425.564 184.523 339.348C184.523 334.718 184.743 335.379 180.556 335.379C154.334 335.379 128.111 335.379 102.109 335.379C95.2777 335.379 88.667 334.056 82.4969 330.528C70.818 323.693 66.1904 312.888 66.4108 299.879C66.8515 282.9 77.6491 270.552 94.3963 267.245C97.0406 266.804 99.6849 266.583 102.329 266.583C181.438 266.583 260.326 266.583 339.434 266.583C358.606 266.583 370.725 279.593 373.81 291.059C380.201 313.991 364.334 335.159 340.095 335.379C313.873 335.379 287.65 335.379 261.428 335.379C260.106 335.159 259.004 335.159 257.461 335.159Z" fill="#28176A"/>
</g>
<mask id="mask7_394_781" style="mask-type:luminance" maskUnits="userSpaceOnUse" x="294" y="-43" width="148" height="148">
<path d="M441.012 -42.8518H294.107V104.148H441.012V-42.8518Z" fill="white"/>
</mask>
<g mask="url(#mask7_394_781)">
<path d="M428.922 -71.7964C434.21 -82.3804 439.058 -92.3029 444.126 -102.446C467.925 -150.736 491.944 -199.246 515.963 -247.535C517.726 -251.284 519.93 -254.812 522.574 -257.899C531.168 -268.262 542.406 -271.57 555.187 -268.483C559.153 -267.38 563.34 -265.837 566.866 -263.852C581.189 -256.135 586.478 -242.243 581.409 -226.808C580.528 -224.162 579.426 -221.516 578.104 -219.091C537.558 -137.065 496.792 -55.0384 456.246 26.9874C446.55 46.6119 434.431 64.6929 417.904 79.6869C404.903 91.3734 390.139 99.7524 372.951 102.619C349.372 106.808 327.557 101.737 308.165 87.8454C296.707 79.6869 291.639 68.0004 294.944 54.1089C298.029 40.8789 305.962 31.3974 319.624 27.8694C329.761 25.2234 339.677 26.5464 348.711 31.6179C356.204 35.8074 362.814 34.7049 369.425 30.0744C377.799 24.1209 383.969 16.1831 389.037 7.36307C391.02 3.83507 394.105 0.307063 394.105 -3.22094C394.105 -6.52844 390.8 -10.0564 388.817 -13.1434C347.169 -80.3959 305.521 -147.649 263.653 -214.901C260.568 -219.973 257.924 -225.265 257.042 -231.218C255.72 -239.597 257.703 -247.094 262.992 -253.709C270.044 -262.529 279.299 -267.821 290.537 -269.585C302.216 -271.349 312.132 -266.939 319.404 -257.678C323.591 -252.166 327.116 -245.992 330.642 -240.038C362.814 -185.134 394.987 -130.009 426.938 -75.1039C427.6 -73.7809 428.04 -73.1194 428.922 -71.7964Z" fill="#28176A"/>
</g>
<mask id="mask8_394_781" style="mask-type:luminance" maskUnits="userSpaceOnUse" x="441" y="-43" width="147" height="148">
<path d="M587.918 -42.8518H441.012V104.148H587.918V-42.8518Z" fill="white"/>
</mask>
<g mask="url(#mask8_394_781)">
<path d="M630.994 -272.172C634.738 -271.731 638.268 -271.51 642.012 -271.069C677.708 -268.644 708.783 -254.973 736.328 -232.923C739.633 -230.277 743.157 -227.19 745.58 -223.662C753.731 -212.416 754.833 -200.068 748.447 -187.941C741.836 -175.372 730.594 -169.639 716.495 -169.639C707.456 -169.639 699.524 -173.167 692.694 -178.9C681.676 -187.941 669.776 -195.879 656.116 -199.848C641.348 -204.258 626.149 -205.36 611.162 -203.596C557.615 -196.981 517.51 -159.055 508.475 -105.694C501.644 -66.0041 510.458 -29.8421 537.562 0.807448C555.852 21.3138 578.769 34.1028 606.316 37.6308C632.096 40.9383 656.335 35.8668 678.59 22.8573C684.543 19.3293 690.272 15.5809 696 11.8324C706.798 4.33543 718.474 2.35093 730.819 7.42243C743.377 12.7144 749.987 22.6368 750.87 36.3078C751.753 49.7583 746.463 60.3423 735.664 68.2803C710.323 87.2433 682.115 100.032 650.607 104.442C588.685 113.042 534.257 96.9453 489.524 52.6248C463.081 26.3853 446.554 -5.58712 439.283 -41.9696C435.316 -61.8146 433.994 -81.8801 436.198 -101.946C444.13 -172.947 480.269 -224.323 544.614 -255.634C565.107 -265.557 586.922 -270.408 609.622 -271.51C610.723 -271.51 611.6 -271.731 612.702 -271.951C618.874 -272.172 624.822 -272.172 630.994 -272.172Z" fill="#28176A"/>
</g>
<mask id="mask9_394_781" style="mask-type:luminance" maskUnits="userSpaceOnUse" x="587" y="-43" width="148" height="148">
<path d="M734.823 -42.8518H587.917V104.148H734.823V-42.8518Z" fill="white"/>
</mask>
<g mask="url(#mask9_394_781)">
<path d="M916.174 193.642C915.955 194.745 915.736 195.627 915.516 196.729C912.211 213.708 897.888 225.394 880.04 225.615C863.069 226.056 848.088 214.81 844.338 198.493C843.462 194.745 843.237 190.776 843.237 187.027C843.237 118.893 843.237 50.7581 843.237 -17.3766C843.237 -18.4791 843.237 -19.5816 843.237 -20.6841C843.017 -20.6841 842.798 -20.9046 842.579 -20.9046C841.916 -20.2431 841.258 -19.3611 840.595 -18.6996C778.231 58.2551 715.873 135.21 653.29 212.164C643.593 224.071 630.591 228.04 615.829 224.733C601.725 221.425 592.031 212.605 588.285 198.052C587.403 194.965 587.403 191.878 587.403 188.571C587.403 90.0071 587.624 -8.77709 587.183 -107.34C587.183 -132.918 612.962 -150.779 637.865 -141.959C650.867 -137.328 660.12 -124.098 660.339 -109.986C660.564 -100.946 660.339 -92.1261 660.339 -83.0856C660.339 -22.2276 660.339 38.8511 660.339 99.7091C660.339 100.812 660.339 101.694 660.339 103.678C661.441 102.355 662.105 101.694 662.768 101.032C725.57 23.8571 788.372 -53.3181 850.949 -130.272C866.599 -149.456 895.021 -148.794 909.563 -129.17C912.868 -124.76 914.853 -119.688 915.736 -114.176C915.736 -113.514 916.174 -112.853 916.399 -112.191C916.174 -10.3206 916.174 91.5506 916.174 193.642Z" fill="#28176A"/>
</g>
<mask id="mask10_394_781" style="mask-type:luminance" maskUnits="userSpaceOnUse" x="294" y="104" width="148" height="148">
<path d="M441.012 104.148H294.107V251.148H441.012V104.148Z" fill="white"/>
</mask>
<g mask="url(#mask10_394_781)">
<path d="M428.922 302.318C434.21 291.734 439.058 281.812 444.126 271.669C467.925 223.379 491.944 174.869 515.963 126.58C517.726 122.831 519.93 119.303 522.574 116.216C531.168 105.853 542.406 102.545 555.187 105.632C559.153 106.735 563.34 108.278 566.866 110.263C581.189 117.98 586.478 131.872 581.409 147.307C580.528 149.953 579.426 152.599 578.104 155.024C537.558 237.05 496.792 319.077 456.246 401.103C446.55 420.727 434.431 438.809 417.904 453.803C404.903 465.489 390.139 473.868 372.951 476.735C349.372 480.924 327.557 475.852 308.165 461.961C296.707 453.802 291.639 442.116 294.944 428.225C298.029 414.995 305.962 405.513 319.624 401.985C329.761 399.339 339.677 400.662 348.711 405.733C356.204 409.923 362.814 408.82 369.425 404.19C377.799 398.236 383.969 390.298 389.037 381.478C391.02 377.95 394.105 374.422 394.105 370.894C394.105 367.586 390.8 364.058 388.817 360.971C347.169 293.719 305.521 226.466 263.653 159.214C260.568 154.142 257.924 148.85 257.042 142.897C255.72 134.518 257.703 127.021 262.992 120.406C270.044 111.586 279.299 106.294 290.537 104.53C302.216 102.766 312.132 107.176 319.404 116.437C323.591 121.949 327.116 128.123 330.642 134.077C362.814 188.981 394.987 244.106 426.938 299.011C427.6 300.334 428.04 300.995 428.922 302.318Z" fill="#28176A"/>
</g>
<mask id="mask11_394_781" style="mask-type:luminance" maskUnits="userSpaceOnUse" x="441" y="104" width="147" height="148">
<path d="M587.918 104.148H441.012V251.148H587.918V104.148Z" fill="white"/>
</mask>
<g mask="url(#mask11_394_781)">
<path d="M466.46 -125.172C470.206 -124.731 473.732 -124.51 477.478 -124.069C513.176 -121.644 544.246 -107.973 571.791 -85.9228C575.097 -83.2768 578.622 -80.1898 581.046 -76.6618C589.2 -65.4163 590.301 -53.0682 583.911 -40.9408C577.3 -28.3722 566.062 -22.6392 551.959 -22.6392C542.924 -22.6392 534.991 -26.1673 528.16 -31.9003C517.142 -40.9408 505.243 -48.8788 491.581 -52.8478C476.817 -57.2578 461.612 -58.3603 446.628 -56.5963C393.081 -49.9812 352.976 -12.0553 343.941 41.3056C337.11 80.9956 345.924 117.158 373.028 147.807C391.318 168.314 414.235 181.103 441.78 184.631C467.562 187.938 491.801 182.867 514.057 169.857C520.007 166.329 525.736 162.581 531.466 158.832C542.263 151.335 553.942 149.351 566.282 154.422C578.843 159.714 585.453 169.637 586.335 183.308C587.216 196.758 581.928 207.342 571.13 215.28C545.789 234.243 517.583 247.032 486.072 251.442C424.151 260.042 369.723 243.945 324.99 199.625C298.547 173.385 282.02 141.413 274.749 105.03C270.782 85.1851 269.46 65.1196 271.664 45.0541C279.596 -25.9468 315.735 -77.3233 380.08 -108.634C400.573 -118.557 422.388 -123.408 445.085 -124.51C446.187 -124.51 447.069 -124.731 448.17 -124.951C454.34 -125.172 460.29 -125.172 466.46 -125.172Z" fill="#28176A"/>
</g>
<mask id="mask12_394_781" style="mask-type:luminance" maskUnits="userSpaceOnUse" x="587" y="104" width="148" height="148">
<path d="M734.823 104.148H587.917V251.148H734.823V104.148Z" fill="white"/>
</mask>
<g mask="url(#mask12_394_781)">
<path d="M796.446 340.642C796.227 341.745 796.008 342.627 795.789 343.729C792.483 360.708 778.16 372.394 760.312 372.615C743.341 373.056 728.36 361.81 724.611 345.493C723.734 341.745 723.509 337.776 723.509 334.027C723.509 265.893 723.509 197.758 723.509 129.624C723.509 128.521 723.509 127.419 723.509 126.316C723.29 126.316 723.07 126.096 722.851 126.096C722.188 126.757 721.53 127.639 720.867 128.301C658.503 205.255 596.145 282.21 533.562 359.164C523.867 371.071 510.866 375.04 496.102 371.733C481.999 368.425 472.303 359.605 468.557 345.052C467.675 341.965 467.675 338.878 467.675 335.571C467.675 237.007 467.896 138.223 467.455 39.6596C467.455 14.0813 493.237 -3.77916 518.137 5.04085C531.138 9.67135 540.394 22.9016 540.614 37.0136C540.834 46.0541 540.614 54.8741 540.614 63.9146C540.614 124.773 540.614 185.851 540.614 246.709C540.614 247.812 540.614 248.694 540.614 250.678C541.716 249.355 542.376 248.694 543.037 248.032C605.842 170.857 668.644 93.6821 731.221 16.7276C746.871 -2.45615 775.293 -1.79465 789.835 17.8301C793.141 22.2401 795.125 27.3116 796.008 32.8241C796.008 33.4856 796.446 34.1471 796.671 34.8086C796.446 136.68 796.446 238.551 796.446 340.642Z" fill="#28176A"/>
</g>
<mask id="mask13_394_781" style="mask-type:luminance" maskUnits="userSpaceOnUse" x="294" y="251" width="148" height="148">
<path d="M441.012 251.148H294.107V398.148H441.012V251.148Z" fill="white"/>
</mask>
<g mask="url(#mask13_394_781)">
<path d="M362.814 322.899C368.103 312.315 372.951 302.392 378.019 292.249C401.818 243.96 425.837 195.45 449.856 147.16C451.618 143.412 453.822 139.884 456.466 136.797C465.06 126.433 476.299 123.126 489.079 126.213C493.046 127.315 497.233 128.859 500.758 130.843C515.082 138.561 520.37 152.452 515.302 167.887C514.421 170.533 513.319 173.179 511.997 175.605C471.451 257.631 430.684 339.657 390.139 421.683C380.443 441.307 368.323 459.388 351.796 474.382C338.795 486.069 324.031 494.448 306.843 497.314C283.265 501.504 261.45 496.432 242.059 482.541C230.6 474.382 225.532 462.696 228.837 448.804C231.922 435.574 239.855 426.093 253.517 422.565C263.654 419.919 273.57 421.242 282.604 426.314C290.097 430.503 296.707 429.401 303.317 424.77C311.691 418.817 317.862 410.878 322.93 402.058C324.913 398.53 327.998 395.003 327.998 391.475C327.998 388.167 324.692 384.639 322.709 381.552C281.062 314.299 239.414 247.047 197.546 179.794C194.461 174.723 191.817 169.431 190.935 163.477C189.613 155.098 191.597 147.601 196.885 140.986C203.937 132.166 213.192 126.874 224.43 125.11C236.109 123.346 246.025 127.756 253.297 137.017C257.484 142.53 261.009 148.704 264.535 154.657C296.707 209.562 328.879 264.687 360.831 319.591C361.492 320.914 361.933 321.576 362.814 322.899Z" fill="#28176A"/>
</g>
<mask id="mask14_394_781" style="mask-type:luminance" maskUnits="userSpaceOnUse" x="441" y="251" width="147" height="148">
<path d="M587.918 251.148H441.012V398.148H587.918V251.148Z" fill="white"/>
</mask>
<g mask="url(#mask14_394_781)">
<path d="M536.975 297.453C540.721 297.894 544.246 298.115 547.992 298.556C583.69 300.981 614.763 314.652 642.308 336.702C645.613 339.348 649.138 342.435 651.561 345.963C659.712 357.209 660.813 369.557 654.428 381.684C647.817 394.253 636.574 399.986 622.476 399.986C613.436 399.986 605.505 396.458 598.675 390.725C587.657 381.684 575.758 373.746 562.095 369.777C547.331 365.367 532.127 364.265 517.142 366.029C463.595 372.644 423.49 410.57 414.455 463.931C407.624 503.621 416.439 539.783 443.543 570.435C461.832 590.937 484.75 603.729 512.294 607.256C538.076 610.563 562.316 605.489 584.572 592.484C590.522 588.952 596.252 585.206 601.98 581.459C612.779 573.961 624.454 571.976 636.799 577.049C649.357 582.337 655.968 592.259 656.85 605.934C657.733 619.383 652.443 629.969 641.645 637.906C616.303 656.868 588.098 669.659 556.586 674.069C494.666 682.664 440.237 666.571 395.505 622.252C369.062 596.011 352.535 564.039 345.263 527.655C341.297 507.81 339.974 487.745 342.178 467.679C350.111 396.678 386.25 345.302 450.594 313.991C471.087 304.068 492.903 299.217 515.6 298.115C516.702 298.115 517.583 297.894 518.685 297.674C524.855 297.453 530.804 297.453 536.975 297.453Z" fill="#28176A"/>
</g>
<mask id="mask15_394_781" style="mask-type:luminance" maskUnits="userSpaceOnUse" x="587" y="251" width="148" height="148">
<path d="M734.823 251.148H587.917V398.148H734.823V251.148Z" fill="white"/>
</mask>
<g mask="url(#mask15_394_781)">
<path d="M877.25 466.327C877.025 467.43 876.806 468.312 876.586 469.414C873.281 486.393 858.958 498.079 841.11 498.3C824.139 498.741 809.158 487.495 805.408 471.178C804.532 467.43 804.307 463.461 804.307 459.712C804.307 391.578 804.307 323.443 804.307 255.309C804.307 254.206 804.307 253.104 804.307 252.001C804.087 252.001 803.868 251.781 803.649 251.781C802.986 252.442 802.328 253.324 801.665 253.986C739.301 330.94 676.943 407.895 614.36 484.849C604.663 496.756 591.663 500.725 576.9 497.418C562.797 494.11 553.101 485.29 549.355 470.737C548.473 467.65 548.473 464.563 548.473 461.256C548.473 362.692 548.694 263.908 548.253 165.345C548.253 139.767 574.035 121.906 598.935 130.726C611.938 135.357 621.19 148.587 621.409 162.699C621.635 171.739 621.409 180.559 621.409 189.6C621.409 250.458 621.409 311.536 621.409 372.394C621.409 373.497 621.409 374.379 621.409 376.363C622.511 375.04 623.175 374.379 623.838 373.717C686.64 296.542 749.442 219.367 812.019 142.413C827.669 123.229 856.091 123.891 870.639 143.515C873.945 147.925 875.923 152.997 876.806 158.509C876.806 159.171 877.25 159.832 877.469 160.494C877.25 262.365 877.25 364.236 877.25 466.327Z" fill="#28176A"/>
</g>
<mask id="mask16_394_781" style="mask-type:luminance" maskUnits="userSpaceOnUse" x="734" y="-43" width="148" height="148">
<path d="M881.728 -42.8518H734.823V104.148H881.728V-42.8518Z" fill="white"/>
</mask>
<g mask="url(#mask16_394_781)">
<path d="M1037.6 -42.4612C1033.85 -35.1847 1030.32 -27.6877 1026.58 -20.4112C1003 26.9963 979.201 74.4038 955.625 121.811C949.234 134.38 934.91 142.318 920.806 141.215C906.045 140.113 896.129 132.616 889.518 119.606C863.294 67.7888 837.07 15.9713 810.627 -35.6257C809.964 -36.9487 809.306 -38.0512 808.643 -39.3742C808.424 -39.3742 808.205 -39.3742 807.98 -39.3742C807.98 -38.2717 807.98 -37.3897 807.98 -36.2872C807.98 14.6483 807.98 65.5838 807.98 116.519C807.98 126.442 805.557 135.262 798.727 142.538C788.592 153.563 775.808 156.871 761.704 153.122C747.825 149.374 739.011 140.113 735.706 126.001C735.042 123.134 734.823 120.268 734.823 117.401C734.823 18.8378 734.823 -79.7257 734.823 -178.289C734.823 -196.15 745.622 -210.262 762.149 -214.451C779.333 -218.641 796.085 -210.923 804.236 -194.827C839.055 -126.472 873.868 -57.8962 908.468 10.4588C913.313 19.9403 918.164 29.4218 923.01 38.9033C923.448 39.5648 923.893 40.4468 924.55 41.5493C925.214 40.4468 925.652 39.5648 926.096 38.4623C964.659 -39.1537 1003 -116.99 1041.56 -194.606C1048.18 -208.057 1059.19 -215.554 1074.39 -215.554C1088.72 -215.554 1099.73 -209.159 1107.01 -196.591C1110.1 -191.299 1111.2 -185.345 1111.2 -179.171C1111.2 -94.0582 1111.2 -8.94515 1111.2 75.9473C1111.2 90.0593 1111.2 104.392 1111.2 118.504C1111.2 135.703 1097.76 151.138 1080.57 153.784C1062.5 156.65 1045.09 146.287 1040.02 129.308C1038.7 125.119 1038.26 120.709 1038.26 116.299C1038.03 64.4813 1038.26 12.4433 1038.26 -39.3742C1038.26 -40.4767 1038.26 -41.5792 1038.26 -42.6817C1038.03 -42.4612 1037.82 -42.4612 1037.6 -42.4612Z" fill="#28176A"/>
</g>
<mask id="mask17_394_781" style="mask-type:luminance" maskUnits="userSpaceOnUse" x="881" y="-43" width="148" height="148">
<path d="M1028.63 -42.8518H881.728V104.148H1028.63V-42.8518Z" fill="white"/>
</mask>
<g mask="url(#mask17_394_781)">
<path d="M1072.79 25.7237C1072.79 27.4877 1072.79 28.5902 1072.79 29.9132C1072.79 116.57 1072.79 203.006 1072.79 289.662C1072.79 302.231 1068.16 312.594 1058.02 320.091C1037.09 335.306 1004.48 325.163 1000.07 296.277C999.626 293.631 999.845 290.765 999.845 288.119C999.845 202.124 999.845 116.129 999.845 29.9132C999.845 25.2827 1000.07 25.9442 995.882 25.9442C969.658 25.9442 943.434 25.9442 917.436 25.9442C910.6 25.9442 903.989 24.6212 897.822 21.0932C886.141 14.2577 881.515 3.45319 881.734 -9.55631C882.178 -26.5348 892.971 -38.8828 909.723 -42.1903C912.365 -42.6313 915.007 -42.8518 917.655 -42.8518C996.764 -42.8518 1075.65 -42.8518 1154.76 -42.8518C1173.93 -42.8518 1186.05 -29.8423 1189.13 -18.3763C1195.52 4.55569 1179.66 25.7237 1155.42 25.9442C1129.2 25.9442 1102.97 25.9442 1076.75 25.9442C1075.43 25.7237 1074.33 25.7237 1072.79 25.7237Z" fill="#28176A"/>
</g>
<mask id="mask18_394_781" style="mask-type:luminance" maskUnits="userSpaceOnUse" x="734" y="104" width="148" height="148">
<path d="M881.728 104.148H734.823V251.148H881.728V104.148Z" fill="white"/>
</mask>
<g mask="url(#mask18_394_781)">
<path d="M895.098 72.1988C891.354 79.4753 887.824 86.9723 884.08 94.2488C860.504 141.656 836.703 189.064 813.127 236.471C806.736 249.04 792.412 256.978 778.308 255.875C763.547 254.773 753.631 247.276 747.02 234.266C720.796 182.449 694.572 130.631 668.129 79.0343C667.466 77.7113 666.808 76.6088 666.145 75.2858C665.926 75.2858 665.707 75.2858 665.481 75.2858C665.481 76.3883 665.481 77.2703 665.481 78.3728C665.481 129.308 665.481 180.244 665.481 231.179C665.481 241.102 663.059 249.922 656.229 257.198C646.093 268.223 633.31 271.531 619.206 267.782C605.327 264.034 596.513 254.773 593.208 240.661C592.544 237.794 592.325 234.928 592.325 232.061C592.325 133.498 592.325 34.9343 592.325 -63.6292C592.325 -81.4897 603.124 -95.6017 619.65 -99.7912C636.835 -103.981 653.587 -96.2632 661.738 -80.1667C696.557 -11.8117 731.37 56.7638 765.969 125.119C770.815 134.6 775.666 144.082 780.512 153.563C780.95 154.225 781.395 155.107 782.052 156.209C782.715 155.107 783.154 154.225 783.598 153.122C822.161 75.5063 860.504 -2.33018 899.067 -79.9462C905.678 -93.3967 916.696 -100.894 931.901 -100.894C946.225 -100.894 957.243 -94.4992 964.511 -81.9307C967.597 -76.6387 968.699 -70.6852 968.699 -64.5112C968.699 20.6018 968.699 105.715 968.699 190.607C968.699 204.719 968.699 219.052 968.699 233.164C968.699 250.363 955.258 265.798 938.068 268.444C920.001 271.31 902.591 260.947 897.521 243.968C896.2 239.779 895.761 235.369 895.761 230.959C895.536 179.141 895.761 127.103 895.761 75.2858C895.761 74.1833 895.761 73.0808 895.761 71.9783C895.536 72.1988 895.317 72.1988 895.098 72.1988Z" fill="#28176A"/>
</g>
<mask id="mask19_394_781" style="mask-type:luminance" maskUnits="userSpaceOnUse" x="881" y="104" width="148" height="148">
<path d="M1028.63 104.148H881.728V251.148H1028.63V104.148Z" fill="white"/>
</mask>
<g mask="url(#mask19_394_781)">
<path d="M954.529 172.724C954.529 174.488 954.529 175.59 954.529 176.913C954.529 263.57 954.529 350.006 954.529 436.662C954.529 449.231 949.897 459.594 939.762 467.091C918.828 482.306 886.218 472.163 881.811 443.277C881.367 440.631 881.586 437.765 881.586 435.119C881.586 349.124 881.586 263.129 881.586 176.913C881.586 172.283 881.811 172.944 877.623 172.944C851.399 172.944 825.176 172.944 799.177 172.944C792.341 172.944 785.73 171.621 779.564 168.093C767.883 161.258 763.256 150.453 763.475 137.444C763.92 120.465 774.713 108.117 791.464 104.81C794.106 104.369 796.748 104.148 799.396 104.148C878.506 104.148 957.391 104.148 1036.5 104.148C1055.67 104.148 1067.79 117.158 1070.87 128.624C1077.27 151.556 1061.4 172.724 1037.16 172.944C1010.94 172.944 984.716 172.944 958.492 172.944C957.171 172.724 956.07 172.724 954.529 172.724Z" fill="#28176A"/>
</g>
<mask id="mask20_394_781" style="mask-type:luminance" maskUnits="userSpaceOnUse" x="734" y="251" width="148" height="148">
<path d="M881.728 251.148H734.823V398.148H881.728V251.148Z" fill="white"/>
</mask>
<g mask="url(#mask20_394_781)">
<path d="M808.424 302.254C804.68 309.53 801.15 317.027 797.406 324.304C773.83 371.711 750.029 419.119 726.453 466.526C720.061 479.095 705.738 487.033 691.634 485.93C676.872 484.828 666.956 477.331 660.346 464.321C634.122 412.504 607.898 360.686 581.454 309.089C580.793 307.766 580.132 306.664 579.471 305.341C579.251 305.341 579.03 305.341 578.81 305.341C578.81 306.443 578.81 307.325 578.81 308.428C578.81 359.363 578.81 410.299 578.81 461.234C578.81 471.157 576.386 479.977 569.555 487.253C559.419 498.278 546.637 501.586 532.534 497.837C518.652 494.089 509.837 484.828 506.532 470.716C505.871 467.849 505.651 464.983 505.651 462.116C505.651 363.553 505.651 264.989 505.651 166.426C505.651 148.565 516.448 134.453 532.975 130.264C550.163 126.074 566.911 133.792 575.064 149.888C609.882 218.243 644.695 286.819 679.295 355.174C684.141 364.655 688.992 374.137 693.838 383.618C694.276 384.28 694.72 385.162 695.378 386.264C696.041 385.162 696.48 384.28 696.924 383.177C735.486 305.561 773.83 227.725 812.393 150.109C819.003 136.658 830.021 129.161 845.221 129.161C859.544 129.161 870.562 135.556 877.837 148.124C880.923 153.416 882.025 159.37 882.025 165.544C882.025 250.657 882.025 335.77 882.025 420.662C882.025 434.774 882.025 449.107 882.025 463.219C882.025 480.418 868.584 495.853 851.394 498.499C833.327 501.365 815.917 491.002 810.847 474.023C809.526 469.834 809.087 465.424 809.087 461.014C808.862 409.196 809.087 357.158 809.087 305.341C809.087 304.238 809.087 303.136 809.087 302.033C808.862 302.254 808.643 302.254 808.424 302.254Z" fill="#28176A"/>
</g>
<mask id="mask21_394_781" style="mask-type:luminance" maskUnits="userSpaceOnUse" x="881" y="251" width="148" height="148">
<path d="M1028.63 251.148H881.728V398.148H1028.63V251.148Z" fill="white"/>
</mask>
<g mask="url(#mask21_394_781)">
<path d="M991.99 335.159C991.99 336.923 991.99 338.025 991.99 339.348C991.99 426.005 991.99 512.441 991.99 599.1C991.99 611.666 987.358 622.027 977.223 629.525C956.289 644.741 923.679 634.599 919.272 605.715C918.828 603.065 919.047 600.202 919.047 597.552C919.047 511.559 919.047 425.564 919.047 339.348C919.047 334.718 919.272 335.379 915.084 335.379C888.86 335.379 862.637 335.379 836.638 335.379C829.802 335.379 823.191 334.056 817.025 330.528C805.344 323.693 800.717 312.888 800.936 299.879C801.381 282.9 812.173 270.552 828.925 267.245C831.567 266.804 834.209 266.583 836.857 266.583C915.967 266.583 994.851 266.583 1073.96 266.583C1093.13 266.583 1105.25 279.593 1108.34 291.059C1114.73 313.991 1098.86 335.159 1074.62 335.379C1048.4 335.379 1022.18 335.379 995.953 335.379C994.632 335.159 993.53 335.159 991.99 335.159Z" fill="#28176A"/>
</g>
<mask id="mask22_394_781" style="mask-type:luminance" maskUnits="userSpaceOnUse" x="1028" y="-43" width="148" height="148">
<path d="M1175.54 -42.8518H1028.63V104.148H1175.54V-42.8518Z" fill="white"/>
</mask>
<g mask="url(#mask22_394_781)">
<path d="M1163.45 -71.7964C1168.74 -82.3804 1173.58 -92.3029 1178.65 -102.446C1202.45 -150.736 1226.47 -199.246 1250.49 -247.535C1252.25 -251.284 1254.45 -254.812 1257.1 -257.899C1265.7 -268.262 1276.93 -271.57 1289.71 -268.483C1293.68 -267.38 1297.87 -265.837 1301.39 -263.852C1315.72 -256.135 1321.01 -242.243 1315.93 -226.808C1315.05 -224.162 1313.95 -221.516 1312.63 -219.091C1272.08 -137.065 1231.32 -55.0384 1190.77 26.9874C1181.08 46.6119 1168.96 64.6929 1152.43 79.6869C1139.43 91.3734 1124.67 99.7524 1107.48 102.619C1083.9 106.808 1062.08 101.737 1042.69 87.8454C1031.23 79.6869 1026.16 68.0004 1029.47 54.1089C1032.56 40.8789 1040.49 31.3974 1054.15 27.8694C1064.29 25.2234 1074.2 26.5464 1083.24 31.6179C1090.73 35.8074 1097.34 34.7049 1103.95 30.0744C1112.33 24.1209 1118.49 16.1831 1123.57 7.36307C1125.55 3.83507 1128.63 0.307063 1128.63 -3.22094C1128.63 -6.52844 1125.32 -10.0564 1123.35 -13.1434C1081.7 -80.3959 1040.05 -147.649 998.181 -214.901C995.094 -219.973 992.452 -225.265 991.57 -231.218C990.249 -239.597 992.233 -247.094 997.517 -253.709C1004.57 -262.529 1013.82 -267.821 1025.06 -269.585C1036.74 -271.349 1046.66 -266.939 1053.93 -257.678C1058.12 -252.166 1061.65 -245.992 1065.17 -240.038C1097.34 -185.134 1129.51 -130.009 1161.46 -75.1039C1162.13 -73.7809 1162.57 -73.1194 1163.45 -71.7964Z" fill="#28176A"/>
</g>
<mask id="mask23_394_781" style="mask-type:luminance" maskUnits="userSpaceOnUse" x="1028" y="104" width="148" height="148">
<path d="M1175.54 104.148H1028.63V251.148H1175.54V104.148Z" fill="white"/>
</mask>
<g mask="url(#mask23_394_781)">
<path d="M1163.45 302.318C1168.74 291.734 1173.58 281.812 1178.65 271.669C1202.45 223.379 1226.47 174.869 1250.49 126.58C1252.25 122.831 1254.45 119.303 1257.1 116.216C1265.7 105.853 1276.93 102.545 1289.71 105.632C1293.68 106.735 1297.87 108.278 1301.39 110.263C1315.72 117.98 1321.01 131.872 1315.93 147.307C1315.05 149.953 1313.95 152.599 1312.63 155.024C1272.08 237.05 1231.32 319.077 1190.77 401.103C1181.08 420.727 1168.96 438.809 1152.43 453.803C1139.43 465.489 1124.67 473.868 1107.48 476.735C1083.9 480.924 1062.08 475.852 1042.69 461.961C1031.23 453.802 1026.16 442.116 1029.47 428.225C1032.56 414.995 1040.49 405.513 1054.15 401.985C1064.29 399.339 1074.2 400.662 1083.24 405.733C1090.73 409.923 1097.34 408.82 1103.95 404.19C1112.33 398.236 1118.49 390.298 1123.57 381.478C1125.55 377.95 1128.63 374.422 1128.63 370.894C1128.63 367.586 1125.32 364.058 1123.35 360.971C1081.7 293.719 1040.05 226.466 998.181 159.214C995.094 154.142 992.452 148.85 991.57 142.897C990.249 134.518 992.233 127.021 997.517 120.406C1004.57 111.586 1013.82 106.294 1025.06 104.53C1036.74 102.766 1046.66 107.176 1053.93 116.437C1058.12 121.949 1061.65 128.123 1065.17 134.077C1097.34 188.981 1129.51 244.106 1161.46 299.011C1162.13 300.334 1162.57 300.995 1163.45 302.318Z" fill="#28176A"/>
</g>
<mask id="mask24_394_781" style="mask-type:luminance" maskUnits="userSpaceOnUse" x="1028" y="251" width="148" height="148">
<path d="M1175.54 251.148H1028.63V398.148H1175.54V251.148Z" fill="white"/>
</mask>
<g mask="url(#mask24_394_781)">
<path d="M1097.34 322.899C1102.63 312.315 1107.48 302.392 1112.55 292.249C1136.34 243.96 1160.36 195.45 1184.38 147.16C1186.15 143.412 1188.35 139.884 1190.99 136.797C1199.59 126.433 1210.83 123.126 1223.61 126.213C1227.57 127.315 1231.76 128.859 1235.28 130.843C1249.61 138.561 1254.9 152.452 1249.83 167.887C1248.94 170.533 1247.84 173.179 1246.52 175.605C1205.98 257.631 1165.21 339.657 1124.67 421.683C1114.97 441.307 1102.85 459.388 1086.32 474.382C1073.32 486.069 1058.56 494.448 1041.37 497.314C1017.79 501.504 995.977 496.432 976.583 482.541C965.127 474.382 960.056 462.696 963.362 448.804C966.448 435.574 974.38 426.093 988.045 422.565C998.181 419.919 1008.1 421.242 1017.13 426.314C1024.62 430.503 1031.23 429.401 1037.85 424.77C1046.22 418.817 1052.39 410.878 1057.46 402.058C1059.44 398.53 1062.52 395.003 1062.52 391.475C1062.52 388.167 1059.22 384.639 1057.24 381.552C1015.59 314.299 973.941 247.047 932.073 179.794C928.987 174.723 926.345 169.431 925.462 163.477C924.141 155.098 926.126 147.601 931.41 140.986C938.465 132.166 947.717 126.874 958.954 125.11C970.636 123.346 980.552 127.756 987.826 137.017C992.008 142.53 995.539 148.704 999.063 154.657C1031.23 209.562 1063.41 264.687 1095.36 319.591C1096.02 320.914 1096.46 321.576 1097.34 322.899Z" fill="#28176A"/>
</g>
</g>
</g>
<g clip-path="url(#clip1_394_781)">
<mask id="mask25_394_781" style="mask-type:luminance" maskUnits="userSpaceOnUse" x="877" y="-393" width="1039" height="735">
<path d="M1916 -393H877V342H1916V-393Z" fill="white"/>
</mask>
<g mask="url(#mask25_394_781)">
<path d="M1916 -393H877V342H1916V-393Z" fill="#372579"/>
<mask id="mask26_394_781" style="mask-type:luminance" maskUnits="userSpaceOnUse" x="877" y="-99" width="148" height="148">
<path d="M1024.2 -98.8518H877.296V48.1482H1024.2V-98.8518Z" fill="white"/>
</mask>
<g mask="url(#mask26_394_781)">
<path d="M950.897 -47.7462C947.151 -40.4698 943.625 -32.9727 939.879 -25.6962C916.301 21.7113 892.502 69.1187 868.924 116.526C862.533 129.095 848.21 137.033 834.107 135.93C819.343 134.828 809.426 127.331 802.816 114.321C776.593 62.5037 750.37 10.6862 723.928 -40.9108C723.266 -42.2338 722.605 -43.3362 721.944 -44.6592C721.724 -44.6592 721.504 -44.6592 721.283 -44.6592C721.283 -43.5567 721.283 -42.6747 721.283 -41.5722C721.283 9.36326 721.283 60.2987 721.283 111.234C721.283 121.157 718.859 129.977 712.028 137.253C701.892 148.278 689.11 151.586 675.007 147.837C661.125 144.089 652.311 134.828 649.005 120.716C648.344 117.849 648.124 114.983 648.124 112.116C648.124 13.5527 648.124 -85.0108 648.124 -183.574C648.124 -201.435 658.921 -215.547 675.448 -219.736C692.636 -223.926 709.384 -216.208 717.537 -200.112C752.354 -131.757 787.17 -63.1812 821.767 5.17377C826.615 14.6553 831.463 24.1367 836.31 33.6182C836.751 34.2797 837.192 35.1617 837.853 36.2642C838.514 35.1617 838.955 34.2797 839.396 33.1772C877.958 -44.4388 916.301 -122.275 954.863 -199.891C961.475 -213.342 972.493 -220.839 987.697 -220.839C1002.02 -220.839 1013.04 -214.444 1020.31 -201.876C1023.4 -196.584 1024.5 -190.63 1024.5 -184.456C1024.5 -99.3432 1024.5 -14.2303 1024.5 70.6622C1024.5 84.7742 1024.5 99.1067 1024.5 113.219C1024.5 130.418 1011.06 145.853 993.867 148.499C975.798 151.365 958.39 141.002 953.321 124.023C951.999 119.834 951.558 115.424 951.558 111.014C951.338 59.1962 951.558 7.15825 951.558 -44.6592C951.558 -45.7617 951.558 -46.8643 951.558 -47.9668C951.338 -47.7463 951.117 -47.7462 950.897 -47.7462Z" fill="#28176A"/>
</g>
<mask id="mask27_394_781" style="mask-type:luminance" maskUnits="userSpaceOnUse" x="877" y="48" width="148" height="148">
<path d="M1024.2 48.1482H877.296V195.148H1024.2V48.1482Z" fill="white"/>
</mask>
<g mask="url(#mask27_394_781)">
<path d="M918.085 121.796C925.357 125.544 932.849 129.072 940.121 132.821C987.498 156.414 1034.88 180.228 1082.25 203.82C1094.81 210.216 1102.75 224.548 1101.64 238.661C1100.54 253.433 1093.05 263.355 1080.05 269.97C1028.26 296.211 976.48 322.451 924.916 348.911C923.594 349.575 922.492 350.233 921.17 350.897C921.17 351.116 921.17 351.336 921.17 351.555C922.272 351.555 923.154 351.555 924.255 351.555C975.158 351.555 1026.06 351.555 1076.96 351.555C1086.88 351.555 1095.69 353.985 1102.97 360.82C1113.98 370.961 1117.29 383.753 1113.54 397.86C1109.8 411.754 1100.54 420.574 1086.44 423.881C1083.57 424.545 1080.71 424.765 1077.84 424.765C979.345 424.765 880.845 424.765 782.345 424.765C764.496 424.765 750.393 413.959 746.206 397.421C742.019 380.22 749.732 363.463 765.818 355.307C834.129 320.466 902.66 285.63 970.971 251.008C980.447 246.16 989.922 241.305 999.398 236.456C1000.06 236.018 1000.94 235.573 1002.04 234.915C1000.94 234.251 1000.06 233.813 998.957 233.368C921.391 194.781 843.604 156.414 766.038 117.827C752.597 111.212 745.104 100.186 745.104 84.9717C745.104 70.6392 751.495 59.6142 764.055 52.3377C769.344 49.2507 775.293 48.1482 781.463 48.1482C866.522 48.1482 951.58 48.1482 1036.42 48.1482C1050.52 48.1482 1064.84 48.1482 1078.95 48.1482C1096.13 48.1482 1111.56 61.5987 1114.2 78.7977C1117.07 96.8787 1106.71 114.299 1089.74 119.37C1085.56 120.693 1081.15 121.134 1076.74 121.134C1024.96 121.355 972.955 121.134 921.17 121.134C920.069 121.134 918.967 121.134 917.865 121.134C918.085 121.355 918.085 121.575 918.085 121.796Z" fill="#28176A"/>
</g>
<mask id="mask28_394_781" style="mask-type:luminance" maskUnits="userSpaceOnUse" x="877" y="195" width="148" height="148">
<path d="M1024.2 195.148H877.296V342.148H1024.2V195.148Z" fill="white"/>
</mask>
<g mask="url(#mask28_394_781)">
<path d="M865.199 154.135C872.471 157.884 879.963 161.412 887.235 165.16C934.612 188.754 981.989 212.569 1029.37 236.16C1041.93 242.556 1049.86 256.888 1048.76 271.001C1047.66 285.772 1040.16 295.695 1027.16 302.31C975.379 328.551 923.594 354.791 872.03 381.251C870.708 381.915 869.606 382.573 868.284 383.237C868.284 383.456 868.284 383.676 868.284 383.895C869.386 383.895 870.267 383.895 871.369 383.895C922.272 383.895 973.175 383.895 1024.08 383.895C1033.99 383.895 1042.81 386.325 1050.08 393.16C1061.1 403.301 1064.4 416.093 1060.66 430.2C1056.91 444.094 1047.66 452.914 1033.55 456.221C1030.69 456.885 1027.82 457.104 1024.96 457.104C926.459 457.104 827.959 457.104 729.458 457.104C711.609 457.104 697.506 446.299 693.32 429.761C689.133 412.56 696.845 395.803 712.932 387.647C781.243 352.806 849.774 317.97 918.085 283.348C927.561 278.5 937.036 273.645 946.512 268.796C947.173 268.358 948.054 267.913 949.156 267.249C948.054 266.591 947.173 266.153 946.071 265.708C868.505 227.121 790.718 188.754 713.152 150.166C699.71 143.551 692.218 132.526 692.218 117.312C692.218 102.979 698.608 91.9542 711.169 84.6777C716.457 81.5907 722.407 80.4882 728.577 80.4882C813.635 80.4882 898.694 80.4882 983.532 80.4882C997.635 80.4882 1011.96 80.4882 1026.06 80.4882C1043.25 80.4882 1058.67 93.9387 1061.32 111.138C1064.18 129.219 1053.83 146.638 1036.86 151.71C1032.67 153.033 1028.26 153.474 1023.86 153.474C972.073 153.694 920.068 153.474 868.284 153.474C867.182 153.474 866.081 153.474 864.979 153.474C865.199 153.694 865.199 153.915 865.199 154.135Z" fill="#28176A"/>
</g>
<mask id="mask29_394_781" style="mask-type:luminance" maskUnits="userSpaceOnUse" x="1024" y="48" width="148" height="148">
<path d="M1171.11 48.1482H1024.2V195.148H1171.11V48.1482Z" fill="white"/>
</mask>
<g mask="url(#mask29_394_781)">
<path d="M1119.61 128.924C1118.36 130.171 1117.58 130.951 1116.65 131.886C1055.41 193.161 994.334 254.28 933.098 315.558C924.216 324.443 913.621 328.497 901.156 326.624C875.602 322.57 859.708 292.322 877.004 268.779C878.562 266.597 880.744 264.73 882.613 262.857C943.382 202.048 1004.15 141.241 1065.07 80.2778C1068.35 77.0035 1068.04 77.627 1065.07 74.6645C1046.53 56.1105 1027.99 37.5565 1009.6 19.1583C1004.77 14.3245 1001.03 8.71187 999.164 1.85147C995.736 -11.2458 1000.1 -22.1599 1009.45 -31.2034C1021.76 -42.897 1038.12 -43.9882 1052.3 -34.4777C1054.48 -32.9182 1056.5 -31.2034 1058.37 -29.3321C1114.31 26.6417 1170.1 82.4602 1226.03 138.435C1239.59 151.999 1238.97 169.774 1233.04 180.064C1221.36 200.803 1195.18 204.543 1177.89 187.548C1159.34 168.994 1140.8 150.44 1122.26 131.886C1121.48 130.795 1120.7 130.015 1119.61 128.924Z" fill="#28176A"/>
</g>
<mask id="mask30_394_781" style="mask-type:luminance" maskUnits="userSpaceOnUse" x="1024" y="-99" width="148" height="148">
<path d="M1171.11 -98.8518H1024.2V48.1482H1171.11V-98.8518Z" fill="white"/>
</mask>
<g mask="url(#mask30_394_781)">
<path d="M1134.46 -14.8414C1134.46 -13.0774 1134.46 -11.9749 1134.46 -10.6519C1134.46 76.0046 1134.46 162.441 1134.46 249.1C1134.46 261.666 1129.83 272.027 1119.7 279.525C1098.76 294.741 1066.15 284.599 1061.74 255.715C1061.3 253.065 1061.52 250.202 1061.52 247.552C1061.52 161.559 1061.52 75.5636 1061.52 -10.6519C1061.52 -15.2824 1061.74 -14.6209 1057.56 -14.6209C1031.33 -14.6209 1005.11 -14.6209 979.109 -14.6209C972.278 -14.6209 965.667 -15.9439 959.497 -19.4719C947.818 -26.3074 943.19 -37.1119 943.411 -50.1214C943.852 -67.0999 954.649 -79.4479 971.396 -82.7554C974.041 -83.1964 976.685 -83.4169 979.329 -83.4169C1058.44 -83.4169 1137.33 -83.4169 1216.43 -83.4169C1235.61 -83.4169 1247.73 -70.4074 1250.81 -58.9414C1257.2 -36.0094 1241.33 -14.8414 1217.1 -14.6209C1190.87 -14.6209 1164.65 -14.6209 1138.43 -14.6209C1137.11 -14.8414 1136 -14.8414 1134.46 -14.8414Z" fill="#28176A"/>
</g>
<mask id="mask31_394_781" style="mask-type:luminance" maskUnits="userSpaceOnUse" x="1171" y="48" width="148" height="148">
<path d="M1318.01 48.1482H1171.11V195.148H1318.01V48.1482Z" fill="white"/>
</mask>
<g mask="url(#mask31_394_781)">
<path d="M1324.24 215.337C1333.09 223.191 1341.41 230.44 1349.89 237.968C1390.35 273.467 1430.96 309.239 1471.36 344.952C1474.52 347.625 1477.35 350.666 1479.65 354.021C1487.43 365.01 1487.71 376.729 1481.43 388.287C1479.34 391.832 1476.76 395.483 1473.93 398.376C1462.78 410.219 1448 411.736 1434.41 402.845C1432.08 401.31 1429.81 399.555 1427.82 397.653C1359.13 337.234 1290.5 276.603 1221.81 216.179C1205.38 201.728 1191.06 185.336 1180.87 165.481C1172.95 149.891 1168.68 133.451 1170.37 116.097C1172.42 92.2227 1182.97 72.45 1201.39 57.3025C1212.23 48.3391 1224.83 46.4648 1237.38 53.2553C1249.35 59.6611 1256.45 69.7827 1256.32 83.9006C1256.25 94.3833 1252.41 103.625 1245.18 111.045C1239.19 117.202 1238.55 123.877 1241.31 131.465C1244.89 141.099 1250.95 149.118 1258.15 156.299C1261.05 159.129 1263.65 163.024 1267.06 163.937C1270.25 164.793 1274.51 162.511 1278.01 161.393C1353.7 138.545 1429.4 115.697 1505.16 92.6359C1510.85 90.9667 1516.64 89.7806 1522.62 90.4694C1531.05 91.3603 1537.77 95.2173 1542.79 102.041C1549.48 111.14 1552.19 121.454 1550.99 132.773C1549.67 144.519 1542.84 152.962 1532.02 157.593C1525.62 160.213 1518.75 162.023 1512.08 163.89C1450.76 180.775 1389.22 197.604 1327.95 214.276C1326.5 214.572 1325.75 214.827 1324.24 215.337Z" fill="#28176A"/>
</g>
<mask id="mask32_394_781" style="mask-type:luminance" maskUnits="userSpaceOnUse" x="1024" y="195" width="148" height="148">
<path d="M1171.11 195.148H1024.2V342.148H1171.11V195.148Z" fill="white"/>
</mask>
<g mask="url(#mask32_394_781)">
<path d="M1219.51 211.976C1218.26 213.227 1217.48 214.003 1216.55 214.94C1155.31 276.218 1094.23 337.335 1032.99 398.613C1024.11 407.498 1013.52 411.552 1001.05 409.679C975.498 405.625 959.604 375.377 976.9 351.834C978.458 349.652 980.639 347.785 982.509 345.912C1043.28 285.103 1104.05 224.293 1164.97 163.333C1168.24 160.058 1167.93 160.682 1164.97 157.719C1146.43 139.165 1127.89 120.611 1109.5 102.213C1104.67 97.3796 1100.93 91.7669 1099.06 84.9065C1095.63 71.8093 1100 60.8951 1109.34 51.8523C1121.65 40.1581 1138.01 39.0668 1152.19 48.5779C1154.38 50.1368 1156.4 51.8517 1158.27 53.723C1214.21 109.697 1269.99 165.515 1325.93 221.49C1339.49 235.052 1338.86 252.828 1332.94 263.118C1321.25 283.858 1295.08 287.598 1277.78 270.604C1259.24 252.051 1240.7 233.493 1222.16 214.94C1221.38 213.849 1220.6 213.073 1219.51 211.976Z" fill="#28176A"/>
</g>
<mask id="mask33_394_781" style="mask-type:luminance" maskUnits="userSpaceOnUse" x="1318" y="48" width="147" height="148">
<path d="M1464.92 48.1482H1318.01V195.148H1464.92V48.1482Z" fill="white"/>
</mask>
<g mask="url(#mask33_394_781)">
<path d="M1285.2 -36.1278C1287.45 -39.1538 1289.4 -42.0985 1291.66 -45.1244C1311.61 -74.8469 1338.97 -94.9367 1371.83 -107.781C1375.77 -109.323 1380.21 -110.835 1384.47 -111.171C1398.28 -112.614 1409.52 -107.395 1416.82 -95.7932C1424.39 -83.7801 1423.73 -71.1749 1416.68 -58.9537C1412.17 -51.1242 1405.15 -46.0136 1396.77 -42.9603C1383.44 -37.9327 1370.62 -31.5904 1360.35 -21.7354C1349.15 -11.1461 1340.59 1.47868 1334.63 15.3459C1313.58 65.0562 1326.35 118.774 1368.02 153.283C1398.95 179.048 1434.66 189.491 1474.73 181.328C1501.63 175.732 1524.15 162.266 1540.98 140.161C1556.73 119.472 1564.46 95.9309 1564.33 70.1395C1564.26 63.2199 1563.87 56.3808 1563.49 49.5411C1562.4 36.4356 1566.53 25.3229 1577.09 17.165C1587.94 8.9265 1599.84 8.15891 1612.11 14.2304C1624.19 20.1922 1630.71 30.0672 1632.18 43.3926C1635.92 74.8346 1632.89 105.671 1620.95 135.183C1597.43 193.143 1556.28 232.26 1495.56 248.868C1459.63 258.661 1423.7 256.995 1388.57 245.105C1369.41 238.62 1351.39 229.735 1335.12 217.791C1277.64 175.417 1251.24 118.412 1256.32 46.9965C1257.98 24.2761 1264.69 2.94574 1275.08 -17.2745C1275.63 -18.2288 1275.88 -19.1031 1276.24 -20.1682C1279.14 -25.625 1282.11 -30.7813 1285.2 -36.1278Z" fill="#28176A"/>
</g>
<mask id="mask34_394_781" style="mask-type:luminance" maskUnits="userSpaceOnUse" x="1464" y="48" width="148" height="148">
<path d="M1611.82 48.1482H1464.92V195.148H1611.82V48.1482Z" fill="white"/>
</mask>
<g mask="url(#mask34_394_781)">
<path d="M1393.06 67.6891C1392.7 66.624 1392.45 65.7503 1392.09 64.6851C1386.47 48.3278 1393.03 31.0405 1408.38 21.9194C1422.86 13.0484 1441.45 15.2902 1452.85 27.5469C1455.49 30.3523 1457.66 33.6788 1459.53 36.9252C1493.58 95.9315 1527.62 154.938 1561.67 213.944C1562.22 214.898 1562.77 215.853 1563.32 216.807C1563.51 216.7 1563.81 216.777 1564 216.671C1564.24 215.764 1564.38 214.673 1564.62 213.766C1580.17 115.922 1595.73 18.076 1611.47 -79.8793C1613.92 -95.0422 1623.2 -104.984 1637.63 -109.506C1651.5 -113.698 1664.31 -110.911 1674.82 -100.182C1677.12 -97.949 1678.67 -95.2758 1680.32 -92.4116C1729.57 -7.05265 1778.74 78.6069 1828.37 163.745C1841.16 185.896 1827.75 214.264 1801.78 219.083C1788.2 221.579 1773.58 214.75 1766.34 202.64C1761.63 194.92 1757.41 187.172 1752.89 179.342C1722.49 126.638 1691.97 73.7422 1661.56 21.0374C1661.01 20.0831 1660.57 19.319 1659.57 17.6007C1659.28 19.2971 1659.04 20.201 1658.8 21.1044C1642.97 119.361 1627.15 217.619 1611.4 315.576C1607.44 340.014 1582.49 353.665 1560.09 343.944C1555.02 341.781 1550.77 338.378 1547.26 334.045C1546.92 333.476 1546.21 333.121 1545.69 332.658C1494.97 244.328 1444.07 156.103 1393.06 67.6891Z" fill="#28176A"/>
</g>
<mask id="mask35_394_781" style="mask-type:luminance" maskUnits="userSpaceOnUse" x="1171" y="195" width="148" height="148">
<path d="M1318.01 195.148H1171.11V342.148H1318.01V195.148Z" fill="white"/>
</mask>
<g mask="url(#mask35_394_781)">
<path d="M1255.2 243.267C1264.04 251.121 1272.37 258.37 1280.85 265.898C1321.3 301.397 1361.91 337.169 1402.31 372.882C1405.47 375.555 1408.31 378.596 1410.6 381.951C1418.38 392.94 1418.67 404.659 1412.38 416.217C1410.29 419.762 1407.71 423.413 1404.89 426.306C1393.73 438.149 1378.95 439.666 1365.36 430.775C1363.04 429.24 1360.77 427.485 1358.77 425.582C1290.08 365.164 1221.45 304.533 1152.77 244.109C1136.33 229.658 1122.02 213.268 1111.82 193.411C1103.9 177.821 1099.64 161.381 1101.32 144.027C1103.38 120.153 1113.92 100.38 1132.35 85.2325C1143.19 76.269 1155.78 74.3948 1168.34 81.1852C1180.31 87.591 1187.41 97.7126 1187.28 111.831C1187.21 122.313 1183.36 131.555 1176.13 138.975C1170.15 145.132 1169.5 151.807 1172.26 159.395C1175.84 169.03 1181.9 177.048 1189.11 184.229C1192 187.059 1194.61 190.954 1198.01 191.867C1201.2 192.723 1205.46 190.441 1208.96 189.323C1284.66 166.475 1360.35 143.627 1436.11 120.566C1441.8 118.897 1447.6 117.711 1453.57 118.399C1462 119.29 1468.73 123.147 1473.74 129.971C1480.43 139.069 1483.14 149.385 1481.94 160.703C1480.62 172.448 1473.8 180.892 1462.97 185.523C1456.57 188.143 1449.7 189.953 1443.04 191.82C1381.71 208.704 1320.17 225.532 1258.9 242.206C1257.45 242.502 1256.7 242.757 1255.2 243.267Z" fill="#28176A"/>
</g>
<mask id="mask36_394_781" style="mask-type:luminance" maskUnits="userSpaceOnUse" x="1318" y="195" width="147" height="148">
<path d="M1464.92 195.148H1318.01V342.148H1464.92V195.148Z" fill="white"/>
</mask>
<g mask="url(#mask36_394_781)">
<path d="M1285.2 58.6871C1287.45 55.6612 1289.4 52.7158 1291.66 49.6905C1311.61 19.968 1338.97 -0.121767 1371.83 -12.9665C1375.77 -14.5082 1380.21 -16.0197 1384.47 -16.3564C1398.28 -17.7991 1409.52 -12.58 1416.82 -0.978293C1424.39 11.0348 1423.73 23.6401 1416.68 35.8612C1412.17 43.6907 1405.15 48.8014 1396.77 51.8546C1383.44 56.8822 1370.62 63.2245 1360.35 73.0795C1349.15 83.6688 1340.59 96.2936 1334.63 110.161C1313.58 159.871 1326.35 213.588 1368.02 248.098C1398.95 273.864 1434.66 284.308 1474.73 276.14C1501.63 270.545 1524.15 257.084 1540.98 234.974C1556.73 214.288 1564.46 190.746 1564.33 164.954C1564.26 158.035 1563.87 151.196 1563.49 144.356C1562.4 131.251 1566.53 120.138 1577.09 111.98C1587.94 103.741 1599.84 102.974 1612.11 109.045C1624.19 115.007 1630.71 124.882 1632.18 138.208C1635.92 169.65 1632.89 200.489 1620.95 230.001C1597.43 287.96 1556.28 327.075 1495.56 343.683C1459.63 353.475 1423.7 351.81 1388.57 339.919C1369.41 333.435 1351.39 324.55 1335.12 312.606C1277.64 270.231 1251.24 213.227 1256.32 141.811C1257.98 119.091 1264.69 97.7606 1275.08 77.5404C1275.63 76.5861 1275.88 75.7119 1276.24 74.6467C1279.14 69.1899 1282.11 64.0337 1285.2 58.6871Z" fill="#28176A"/>
</g>
<mask id="mask37_394_781" style="mask-type:luminance" maskUnits="userSpaceOnUse" x="1171" y="-99" width="148" height="148">
<path d="M1318.01 -98.8518H1171.11V48.1482H1318.01V-98.8518Z" fill="white"/>
</mask>
<g mask="url(#mask37_394_781)">
<path d="M1239.81 -27.101C1245.1 -37.685 1249.95 -47.6075 1255.02 -57.7505C1278.82 -106.04 1302.84 -154.55 1326.86 -202.84C1328.62 -206.588 1330.82 -210.116 1333.47 -213.203C1342.06 -223.567 1353.3 -226.874 1366.08 -223.787C1370.05 -222.685 1374.23 -221.141 1377.76 -219.157C1392.08 -211.439 1397.37 -197.548 1392.3 -182.113C1391.42 -179.467 1390.32 -176.821 1389 -174.395C1348.45 -92.369 1307.68 -10.343 1267.14 71.683C1257.44 91.3075 1245.32 109.388 1228.8 124.382C1215.8 136.069 1201.03 144.448 1183.84 147.314C1160.27 151.504 1138.45 146.432 1119.06 132.541C1107.6 124.382 1102.53 112.696 1105.84 98.8045C1108.92 85.5745 1116.86 76.093 1130.52 72.565C1140.65 69.919 1150.57 71.242 1159.6 76.3135C1167.1 80.503 1173.71 79.4005 1180.32 74.77C1188.69 68.8165 1194.86 60.8785 1199.93 52.0585C1201.91 48.5305 1205 45.0025 1205 41.4745C1205 38.167 1201.69 34.639 1199.71 31.552C1158.06 -35.7005 1116.41 -102.953 1074.55 -170.206C1071.46 -175.277 1068.82 -180.569 1067.94 -186.523C1066.61 -194.902 1068.6 -202.399 1073.89 -209.014C1080.94 -217.834 1090.19 -223.126 1101.43 -224.89C1113.11 -226.654 1123.03 -222.244 1130.3 -212.983C1134.48 -207.47 1138.01 -201.296 1141.54 -195.343C1173.71 -140.438 1205.88 -85.313 1237.83 -30.4085C1238.49 -29.0855 1238.93 -28.424 1239.81 -27.101Z" fill="#28176A"/>
</g>
<mask id="mask38_394_781" style="mask-type:luminance" maskUnits="userSpaceOnUse" x="1318" y="-99" width="147" height="148">
<path d="M1464.92 -98.8518H1318.01V48.1482H1464.92V-98.8518Z" fill="white"/>
</mask>
<g mask="url(#mask38_394_781)">
<path d="M1413.97 -52.5469C1417.72 -52.1059 1421.25 -51.8854 1424.99 -51.4444C1460.69 -49.0189 1491.76 -35.3479 1519.31 -13.2979C1522.61 -10.6519 1526.14 -7.56486 1528.56 -4.03686C1536.71 7.20864 1537.81 19.5566 1531.43 31.6841C1524.82 44.2526 1513.57 49.9856 1499.48 49.9856C1490.44 49.9856 1482.5 46.4576 1475.67 40.7246C1464.66 31.6841 1452.76 23.7461 1439.1 19.7771C1424.33 15.3671 1409.13 14.2646 1394.14 16.0286C1340.6 22.6436 1300.49 60.5696 1291.46 113.931C1284.62 153.621 1293.44 189.783 1320.54 220.435C1338.83 240.937 1361.75 253.729 1389.29 257.256C1415.08 260.563 1439.32 255.489 1461.57 242.484C1467.52 238.952 1473.25 235.206 1478.98 231.459C1489.78 223.961 1501.45 221.976 1513.8 227.049C1526.36 232.337 1532.97 242.259 1533.85 255.934C1534.73 269.383 1529.44 279.969 1518.64 287.906C1493.3 306.868 1465.1 319.659 1433.59 324.069C1371.67 332.664 1317.24 316.571 1272.5 272.252C1246.06 246.011 1229.54 214.039 1222.26 177.655C1218.3 157.81 1216.97 137.745 1219.18 117.679C1227.11 46.6781 1263.25 -4.69836 1327.59 -36.0094C1348.09 -45.9319 1369.9 -50.7829 1392.6 -51.8854C1393.7 -51.8854 1394.58 -52.1059 1395.69 -52.3264C1401.86 -52.5469 1407.8 -52.5469 1413.97 -52.5469Z" fill="#28176A"/>
</g>
<mask id="mask39_394_781" style="mask-type:luminance" maskUnits="userSpaceOnUse" x="1464" y="-99" width="148" height="148">
<path d="M1611.82 -98.8518H1464.92V48.1482H1611.82V-98.8518Z" fill="white"/>
</mask>
<g mask="url(#mask39_394_781)">
<path d="M1754.25 116.327C1754.02 117.43 1753.81 118.312 1753.59 119.414C1750.28 136.393 1735.96 148.079 1718.11 148.3C1701.14 148.741 1686.16 137.495 1682.41 121.178C1681.53 117.43 1681.31 113.461 1681.31 109.712C1681.31 41.5775 1681.31 -26.5569 1681.31 -94.6914C1681.31 -95.7939 1681.31 -96.8964 1681.31 -97.9989C1681.09 -97.9989 1680.87 -98.2194 1680.65 -98.2194C1679.99 -97.5579 1679.33 -96.6759 1678.66 -96.0144C1616.3 -19.0599 1553.94 57.8946 1491.36 134.849C1481.66 146.756 1468.66 150.725 1453.9 147.418C1439.8 144.11 1430.1 135.29 1426.35 120.737C1425.47 117.65 1425.47 114.563 1425.47 111.256C1425.47 12.692 1425.69 -86.0919 1425.25 -184.655C1425.25 -210.233 1451.03 -228.094 1475.94 -219.274C1488.94 -214.643 1498.19 -201.413 1498.41 -187.301C1498.63 -178.261 1498.41 -169.441 1498.41 -160.4C1498.41 -99.5424 1498.41 -38.4639 1498.41 22.3941C1498.41 23.4966 1498.41 24.3786 1498.41 26.3631C1499.51 25.0401 1500.17 24.3786 1500.84 23.7171C1563.64 -53.4579 1626.44 -130.633 1689.02 -207.587C1704.67 -226.771 1733.09 -226.109 1747.64 -206.485C1750.94 -202.075 1752.92 -197.003 1753.81 -191.491C1753.81 -190.829 1754.25 -190.168 1754.47 -189.506C1754.25 -87.6354 1754.25 14.2356 1754.25 116.327Z" fill="#28176A"/>
</g>
<mask id="mask40_394_781" style="mask-type:luminance" maskUnits="userSpaceOnUse" x="1464" y="195" width="148" height="148">
<path d="M1611.82 195.148H1464.92V342.148H1611.82V195.148Z" fill="white"/>
</mask>
<g mask="url(#mask40_394_781)">
<path d="M1628.11 -135.476C1629.18 -135.837 1630.05 -136.086 1631.12 -136.446C1647.47 -142.072 1664.74 -135.502 1673.85 -120.145C1682.72 -105.662 1680.48 -87.0539 1668.23 -75.6489C1665.43 -73.0112 1662.1 -70.8359 1658.86 -68.9616C1599.89 -34.8944 1540.92 -0.826541 1481.95 33.2407C1481 33.792 1480.05 34.3432 1479.09 34.8945C1479.2 35.0853 1479.12 35.3864 1479.23 35.5773C1480.14 35.8197 1481.23 35.9513 1482.13 36.1932C1579.91 51.7574 1677.69 67.3216 1775.59 83.0761C1790.74 85.5247 1800.68 94.807 1805.19 109.255C1809.39 123.13 1806.6 135.942 1795.88 146.465C1793.65 148.772 1790.98 150.316 1788.11 151.97C1702.81 201.253 1617.2 250.451 1532.12 300.117C1509.98 312.902 1481.63 299.494 1476.82 273.503C1474.32 259.923 1481.15 245.288 1493.25 238.039C1500.96 233.333 1508.71 229.112 1516.54 224.59C1569.2 194.161 1622.06 163.622 1674.74 133.193C1675.69 132.642 1676.46 132.201 1678.17 131.209C1676.47 130.915 1675.57 130.673 1674.67 130.431C1576.48 114.596 1478.28 98.7601 1380.39 83.005C1355.96 79.0384 1342.32 54.0744 1352.04 31.6587C1354.2 26.5896 1357.6 22.3349 1361.93 18.8152C1362.5 18.4844 1362.85 17.7714 1363.32 17.2497C1451.59 -33.4949 1539.76 -84.4304 1628.11 -135.476Z" fill="#28176A"/>
</g>
</g>
</g>
<defs>
<clipPath id="clip0_394_781">
<rect width="1039" height="735" fill="white" transform="translate(0 -43)"/>
</clipPath>
<clipPath id="clip1_394_781">
<rect width="1039" height="735" fill="white" transform="translate(877 -393)"/>
</clipPath>
</defs>
</svg>
