<svg width="33" height="33" viewBox="0 0 33 33" fill="none" xmlns="http://www.w3.org/2000/svg">
<g id="compass-03">
<g id="Icon">
<path d="M16.5 30.25C24.0939 30.25 30.25 24.0939 30.25 16.5C30.25 8.90608 24.0939 2.75 16.5 2.75C8.90608 2.75 2.75 8.90608 2.75 16.5C2.75 24.0939 8.90608 30.25 16.5 30.25Z" stroke="white" stroke-width="3" stroke-linecap="round" stroke-linejoin="round"/>
<path d="M20.2429 11.3657C20.9146 11.1418 21.2505 11.0298 21.4739 11.1095C21.6683 11.1788 21.8212 11.3317 21.8905 11.5261C21.9702 11.7495 21.8582 12.0854 21.6343 12.7571L19.5889 18.8932C19.5252 19.0845 19.4933 19.1802 19.4389 19.2596C19.3908 19.33 19.33 19.3908 19.2596 19.4389C19.1802 19.4933 19.0845 19.5252 18.8932 19.5889L12.7571 21.6343C12.0854 21.8582 11.7495 21.9702 11.5261 21.8905C11.3317 21.8212 11.1788 21.6683 11.1095 21.4739C11.0298 21.2505 11.1418 20.9146 11.3657 20.2429L13.4111 14.1068C13.4748 13.9155 13.5067 13.8198 13.5611 13.7404C13.6092 13.67 13.67 13.6092 13.7404 13.5611C13.8198 13.5067 13.9155 13.4748 14.1068 13.4111L20.2429 11.3657Z" stroke="white" stroke-width="3" stroke-linecap="round" stroke-linejoin="round"/>
</g>
</g>
</svg>
