<svg width="255" height="120" viewBox="0 0 255 120" fill="none" xmlns="http://www.w3.org/2000/svg">
<path d="M60.2779 89.9953C57.0922 89.9953 53.9065 89.9953 50.721 89.9953C49.5911 89.9953 48.48 89.7889 47.4242 89.3386C46.0352 88.7571 44.8869 87.8566 43.9608 86.6748C40.8307 82.6788 37.6821 78.7017 34.5335 74.7057C33.7001 73.6551 32.8666 72.5857 32.0332 71.5351C30.6627 69.7717 30.0143 67.7832 30.1626 65.5507C30.2181 64.7065 30.4218 63.8622 30.6071 63.0367C31.9591 57.1273 33.2927 51.2365 34.6076 45.3646C35.2373 42.5694 36.8116 40.5432 39.3491 39.3051C45.0905 36.5098 50.8135 33.6957 56.5551 30.9004C59.037 29.6999 61.5373 29.6999 64.0191 30.9004C69.7607 33.6957 75.5208 36.4911 81.2622 39.3051C83.7626 40.5244 85.337 42.5506 85.9481 45.2896C87.3742 51.5743 88.7819 57.859 90.1895 64.1436C90.7821 66.8263 90.2635 69.2839 88.5781 71.4414C84.5775 76.563 80.5584 81.6657 76.5209 86.7498C74.817 88.8885 72.5574 89.9578 69.8532 89.9766C66.6677 90.0141 63.482 89.9953 60.2779 89.9953ZM60.2779 84.5361C62.6115 84.5361 64.9638 84.5361 67.2974 84.5361C67.7974 84.5361 68.2975 84.4986 68.7975 84.4047C70.946 84.0108 72.687 82.9414 74.039 81.2155C75.1874 79.7521 76.3357 78.3077 77.4654 76.8444C79.2064 74.6307 80.9659 72.417 82.7069 70.1845C84.3923 68.0271 84.985 65.5882 84.3923 62.9055C83.3922 58.2904 82.3365 53.6754 81.2808 49.0603C80.6511 46.3215 79.0953 44.314 76.5949 43.0759C72.4462 41.031 68.2789 39.0049 64.1118 36.9787C61.5558 35.7406 58.9999 35.7406 56.444 36.9787C52.3139 39.0049 48.1651 41.031 44.0164 43.0572C41.4975 44.2953 39.9231 46.3026 39.2935 49.0603C38.3488 53.2252 37.4043 57.39 36.4782 61.5547C36.293 62.3802 36.0893 63.1869 36.0153 64.0311C35.8115 66.3762 36.4968 68.4585 37.96 70.297C40.7936 73.8802 43.6274 77.4634 46.4427 81.0654C48.2577 83.3917 50.6098 84.5361 53.5363 84.5361C55.7773 84.5361 58.0183 84.5361 60.2779 84.5361Z" fill="white"/>
<mask id="mask0_394_765" style="mask-type:luminance" maskUnits="userSpaceOnUse" x="100" y="47" width="125" height="26">
<path d="M224.858 47.0925H100.975V72.9075H224.858V47.0925Z" fill="white"/>
</mask>
<g mask="url(#mask0_394_765)">
<path d="M224.858 70.3875C224.843 70.4625 224.828 70.5225 224.813 70.5975C224.587 71.7525 223.607 72.5475 222.386 72.5625C221.226 72.5925 220.201 71.8275 219.945 70.7175C219.885 70.4625 219.87 70.1925 219.87 69.9375C219.87 65.3025 219.87 60.6675 219.87 56.0325C219.87 55.9575 219.87 55.8825 219.87 55.8075C219.855 55.8075 219.839 55.7925 219.824 55.7925C219.779 55.8375 219.734 55.8975 219.689 55.9425C215.424 61.1775 211.159 66.4125 206.878 71.6475C206.215 72.4575 205.326 72.7275 204.316 72.5025C203.352 72.2775 202.689 71.6775 202.433 70.6875C202.372 70.4775 202.372 70.2675 202.372 70.0425C202.372 63.3375 202.387 56.6175 202.357 49.9125C202.357 48.1725 204.12 46.9575 205.823 47.5575C206.713 47.8725 207.346 48.7725 207.361 49.7325C207.376 50.3475 207.361 50.9475 207.361 51.5625C207.361 55.7025 207.361 59.8575 207.361 63.9975C207.361 64.0725 207.361 64.1325 207.361 64.2675C207.436 64.1775 207.481 64.1325 207.527 64.0875C211.822 58.8375 216.117 53.5875 220.397 48.3525C221.467 47.0475 223.411 47.0925 224.406 48.4275C224.632 48.7275 224.768 49.0725 224.828 49.4475C224.828 49.4925 224.858 49.5375 224.873 49.5825C224.858 56.5125 224.858 63.4425 224.858 70.3875Z" fill="white"/>
<path d="M189.487 47.0925C189.743 47.1225 189.984 47.1375 190.24 47.1675C192.682 47.3325 194.807 48.2625 196.69 49.7625C196.917 49.9425 197.158 50.1525 197.323 50.3925C197.881 51.1575 197.956 51.9975 197.519 52.8225C197.067 53.6775 196.299 54.0675 195.334 54.0675C194.716 54.0675 194.174 53.8275 193.706 53.4375C192.953 52.8225 192.139 52.2825 191.205 52.0125C190.195 51.7125 189.155 51.6375 188.13 51.7575C184.468 52.2075 181.725 54.7875 181.107 58.4175C180.64 61.1175 181.243 63.5775 183.097 65.6625C184.347 67.0575 185.915 67.9275 187.799 68.1675C189.562 68.3925 191.22 68.0475 192.742 67.1625C193.149 66.9225 193.541 66.6675 193.933 66.4125C194.671 65.9025 195.47 65.7675 196.314 66.1125C197.173 66.4725 197.625 67.1475 197.685 68.0775C197.745 68.9925 197.384 69.7125 196.645 70.2525C194.912 71.5425 192.983 72.4125 190.828 72.7125C186.593 73.2975 182.87 72.2025 179.811 69.1875C178.003 67.4025 176.872 65.2275 176.375 62.7525C176.104 61.4025 176.013 60.0375 176.164 58.6725C176.706 53.8425 179.178 50.3475 183.579 48.2175C184.98 47.5425 186.472 47.2125 188.025 47.1375C188.1 47.1375 188.16 47.1225 188.236 47.1075C188.658 47.0925 189.065 47.0925 189.487 47.0925Z" fill="white"/>
<path d="M121.712 59.1676C121.456 59.6626 121.215 60.1726 120.959 60.6676C119.346 63.8926 117.719 67.1176 116.106 70.3426C115.669 71.1976 114.689 71.7376 113.725 71.6626C112.715 71.5876 112.037 71.0776 111.585 70.1926C109.791 66.6676 107.998 63.1426 106.189 59.6326C106.144 59.5426 106.099 59.4676 106.054 59.3776C106.039 59.3776 106.024 59.3776 106.008 59.3776C106.008 59.4526 106.008 59.5126 106.008 59.5876C106.008 63.0526 106.008 66.5176 106.008 69.9826C106.008 70.6576 105.843 71.2576 105.375 71.7526C104.682 72.5026 103.808 72.7276 102.844 72.4726C101.894 72.2176 101.291 71.5876 101.065 70.6276C101.02 70.4326 101.005 70.2376 101.005 70.0426C101.005 63.3376 101.005 56.6326 101.005 49.9276C101.005 48.7126 101.743 47.7526 102.874 47.4676C104.049 47.1826 105.195 47.7076 105.752 48.8026C108.133 53.4526 110.515 58.1176 112.881 62.7676C113.212 63.4126 113.544 64.0576 113.875 64.7026C113.906 64.7476 113.936 64.8076 113.981 64.8826C114.026 64.8076 114.056 64.7476 114.086 64.6726C116.724 59.3926 119.346 54.0976 121.984 48.8176C122.436 47.9026 123.189 47.3926 124.229 47.3926C125.209 47.3926 125.962 47.8276 126.46 48.6826C126.671 49.0426 126.746 49.4476 126.746 49.8676C126.746 55.6576 126.746 61.4476 126.746 67.2226C126.746 68.1826 126.746 69.1576 126.746 70.1176C126.746 71.2876 125.827 72.3376 124.651 72.5176C123.415 72.7126 122.225 72.0076 121.878 70.8526C121.788 70.5676 121.758 70.2676 121.758 69.9676C121.742 66.4426 121.758 62.9026 121.758 59.3776C121.758 59.3026 121.758 59.2276 121.758 59.1526C121.742 59.1676 121.727 59.1676 121.712 59.1676Z" fill="white"/>
<path d="M164.996 60.8626C165.358 60.1426 165.69 59.4676 166.036 58.7776C167.664 55.4926 169.307 52.1926 170.949 48.9076C171.07 48.6526 171.221 48.4126 171.401 48.2026C171.989 47.4976 172.758 47.2726 173.632 47.4826C173.903 47.5576 174.19 47.6626 174.431 47.7976C175.41 48.3226 175.772 49.2676 175.425 50.3176C175.365 50.4976 175.29 50.6776 175.199 50.8426C172.426 56.4226 169.638 62.0026 166.865 67.5826C166.202 68.9176 165.373 70.1476 164.243 71.1676C163.354 71.9626 162.344 72.5326 161.168 72.7276C159.556 73.0126 158.064 72.6676 156.737 71.7226C155.954 71.1676 155.607 70.3726 155.833 69.4276C156.044 68.5276 156.587 67.8826 157.521 67.6426C158.214 67.4626 158.893 67.5526 159.511 67.8976C160.023 68.1826 160.475 68.1076 160.927 67.7926C161.5 67.3876 161.922 66.8476 162.268 66.2476C162.404 66.0076 162.615 65.7676 162.615 65.5276C162.615 65.3026 162.389 65.0626 162.253 64.8526C159.405 60.2776 156.557 55.7026 153.693 51.1276C153.482 50.7826 153.301 50.4226 153.241 50.0176C153.151 49.4476 153.286 48.9376 153.648 48.4876C154.13 47.8876 154.763 47.5276 155.532 47.4076C156.331 47.2876 157.009 47.5876 157.506 48.2176C157.792 48.5926 158.034 49.0126 158.275 49.4176C160.475 53.1526 162.675 56.9026 164.861 60.6376C164.906 60.7276 164.936 60.7726 164.996 60.8626Z" fill="white"/>
<path d="M142.917 52.0725C142.917 52.1925 142.917 52.2675 142.917 52.3575C142.917 58.2525 142.917 64.1325 142.917 70.0275C142.917 70.8825 142.601 71.5875 141.908 72.0975C140.476 73.1325 138.245 72.4425 137.944 70.4775C137.914 70.2975 137.929 70.1025 137.929 69.9225C137.929 64.0725 137.929 58.2225 137.929 52.3575C137.929 52.0425 137.944 52.0875 137.658 52.0875C135.864 52.0875 134.071 52.0875 132.292 52.0875C131.825 52.0875 131.373 51.9975 130.951 51.7575C130.152 51.2925 129.836 50.5575 129.851 49.6725C129.881 48.5175 130.619 47.6775 131.765 47.4525C131.946 47.4225 132.127 47.4075 132.307 47.4075C137.718 47.4075 143.113 47.4075 148.524 47.4075C149.835 47.4075 150.664 48.2925 150.875 49.0725C151.312 50.6325 150.227 52.0725 148.569 52.0875C146.775 52.0875 144.982 52.0875 143.189 52.0875C143.098 52.0725 143.023 52.0725 142.917 52.0725Z" fill="white"/>
</g>
<path d="M105.788 91.162C105.44 91.162 105.134 91.072 104.87 90.892C104.606 90.7 104.396 90.418 104.24 90.046L101.522 83.782C101.39 83.47 101.342 83.182 101.378 82.918C101.414 82.642 101.54 82.426 101.756 82.27C101.984 82.102 102.296 82.018 102.692 82.018C103.016 82.018 103.28 82.096 103.484 82.252C103.688 82.396 103.868 82.678 104.024 83.098L106.148 88.498H105.572L107.786 83.08C107.954 82.672 108.14 82.396 108.344 82.252C108.548 82.096 108.83 82.018 109.19 82.018C109.502 82.018 109.748 82.102 109.928 82.27C110.12 82.426 110.234 82.636 110.27 82.9C110.318 83.164 110.27 83.452 110.126 83.764L107.354 90.046C107.198 90.43 106.988 90.712 106.724 90.892C106.472 91.072 106.16 91.162 105.788 91.162ZM116.038 91.198C114.994 91.198 114.094 91.012 113.338 90.64C112.594 90.256 112.018 89.722 111.61 89.038C111.214 88.342 111.016 87.526 111.016 86.59C111.016 85.678 111.208 84.88 111.592 84.196C111.976 83.5 112.51 82.96 113.194 82.576C113.89 82.18 114.676 81.982 115.552 81.982C116.188 81.982 116.764 82.09 117.28 82.306C117.796 82.51 118.24 82.81 118.612 83.206C118.984 83.59 119.266 84.064 119.458 84.628C119.65 85.18 119.746 85.798 119.746 86.482C119.746 86.71 119.674 86.884 119.53 87.004C119.386 87.112 119.176 87.166 118.9 87.166H113.248V85.762H117.784L117.496 86.014C117.496 85.522 117.424 85.114 117.28 84.79C117.136 84.454 116.926 84.202 116.65 84.034C116.386 83.866 116.056 83.782 115.66 83.782C115.216 83.782 114.838 83.884 114.526 84.088C114.214 84.292 113.974 84.586 113.806 84.97C113.638 85.354 113.554 85.816 113.554 86.356V86.5C113.554 87.412 113.764 88.084 114.184 88.516C114.616 88.948 115.252 89.164 116.092 89.164C116.38 89.164 116.71 89.128 117.082 89.056C117.454 88.984 117.802 88.87 118.126 88.714C118.402 88.582 118.648 88.54 118.864 88.588C119.08 88.624 119.248 88.72 119.368 88.876C119.488 89.032 119.554 89.212 119.566 89.416C119.59 89.62 119.548 89.824 119.44 90.028C119.332 90.22 119.152 90.382 118.9 90.514C118.492 90.742 118.03 90.91 117.514 91.018C117.01 91.138 116.518 91.198 116.038 91.198ZM122.731 91.162C122.275 91.162 121.927 91.042 121.687 90.802C121.447 90.562 121.327 90.22 121.327 89.776V83.386C121.327 82.942 121.441 82.606 121.669 82.378C121.909 82.138 122.239 82.018 122.659 82.018C123.091 82.018 123.421 82.138 123.649 82.378C123.877 82.606 123.991 82.942 123.991 83.386V84.322H123.811C123.955 83.602 124.273 83.044 124.765 82.648C125.257 82.252 125.893 82.03 126.673 81.982C126.973 81.958 127.201 82.036 127.357 82.216C127.525 82.384 127.615 82.666 127.627 83.062C127.651 83.434 127.573 83.728 127.393 83.944C127.225 84.16 126.937 84.292 126.529 84.34L126.115 84.376C125.431 84.436 124.921 84.634 124.585 84.97C124.261 85.306 124.099 85.792 124.099 86.428V89.776C124.099 90.22 123.979 90.562 123.739 90.802C123.511 91.042 123.175 91.162 122.731 91.162ZM135.555 91C135.171 91 134.877 90.898 134.673 90.694C134.469 90.49 134.367 90.208 134.367 89.848C134.367 89.476 134.469 89.194 134.673 89.002C134.877 88.81 135.171 88.714 135.555 88.714H137.373V80.596H138.687L136.059 82.198C135.783 82.366 135.525 82.432 135.285 82.396C135.057 82.36 134.859 82.258 134.691 82.09C134.523 81.922 134.409 81.724 134.349 81.496C134.301 81.256 134.325 81.022 134.421 80.794C134.517 80.554 134.697 80.35 134.961 80.182L137.463 78.67C137.715 78.514 137.967 78.388 138.219 78.292C138.483 78.196 138.741 78.148 138.993 78.148C139.353 78.148 139.635 78.244 139.839 78.436C140.055 78.616 140.163 78.898 140.163 79.282V88.714H141.801C142.173 88.714 142.461 88.81 142.665 89.002C142.869 89.194 142.971 89.476 142.971 89.848C142.971 90.22 142.869 90.508 142.665 90.712C142.461 90.904 142.173 91 141.801 91H135.555ZM145.879 91.09C145.399 91.09 145.015 90.946 144.727 90.658C144.451 90.37 144.313 89.998 144.313 89.542C144.313 89.098 144.451 88.738 144.727 88.462C145.015 88.174 145.399 88.03 145.879 88.03C146.359 88.03 146.731 88.174 146.995 88.462C147.271 88.738 147.409 89.098 147.409 89.542C147.409 89.998 147.271 90.37 146.995 90.658C146.731 90.946 146.359 91.09 145.879 91.09ZM153.597 91.198C152.061 91.198 150.885 90.628 150.069 89.488C149.265 88.336 148.863 86.71 148.863 84.61C148.863 83.206 149.043 82.024 149.403 81.064C149.775 80.092 150.309 79.36 151.005 78.868C151.713 78.364 152.577 78.112 153.597 78.112C155.145 78.112 156.321 78.67 157.125 79.786C157.929 80.89 158.331 82.498 158.331 84.61C158.331 86.014 158.145 87.208 157.773 88.192C157.413 89.164 156.885 89.908 156.189 90.424C155.493 90.94 154.629 91.198 153.597 91.198ZM153.597 88.93C154.293 88.93 154.809 88.588 155.145 87.904C155.481 87.208 155.649 86.11 155.649 84.61C155.649 83.11 155.481 82.03 155.145 81.37C154.809 80.71 154.293 80.38 153.597 80.38C152.901 80.38 152.385 80.71 152.049 81.37C151.713 82.03 151.545 83.11 151.545 84.61C151.545 86.11 151.713 87.208 152.049 87.904C152.385 88.588 152.901 88.93 153.597 88.93ZM161.348 91.09C160.868 91.09 160.484 90.946 160.196 90.658C159.92 90.37 159.782 89.998 159.782 89.542C159.782 89.098 159.92 88.738 160.196 88.462C160.484 88.174 160.868 88.03 161.348 88.03C161.828 88.03 162.2 88.174 162.464 88.462C162.74 88.738 162.878 89.098 162.878 89.542C162.878 89.998 162.74 90.37 162.464 90.658C162.2 90.946 161.828 91.09 161.348 91.09ZM169.066 91.198C167.53 91.198 166.354 90.628 165.538 89.488C164.734 88.336 164.332 86.71 164.332 84.61C164.332 83.206 164.512 82.024 164.872 81.064C165.244 80.092 165.778 79.36 166.474 78.868C167.182 78.364 168.046 78.112 169.066 78.112C170.614 78.112 171.79 78.67 172.594 79.786C173.398 80.89 173.8 82.498 173.8 84.61C173.8 86.014 173.614 87.208 173.242 88.192C172.882 89.164 172.354 89.908 171.658 90.424C170.962 90.94 170.098 91.198 169.066 91.198ZM169.066 88.93C169.762 88.93 170.278 88.588 170.614 87.904C170.95 87.208 171.118 86.11 171.118 84.61C171.118 83.11 170.95 82.03 170.614 81.37C170.278 80.71 169.762 80.38 169.066 80.38C168.37 80.38 167.854 80.71 167.518 81.37C167.182 82.03 167.014 83.11 167.014 84.61C167.014 86.11 167.182 87.208 167.518 87.904C167.854 88.588 168.37 88.93 169.066 88.93Z" fill="#4D4F5F"/>
</svg>
