<svg width="622" height="621" viewBox="0 0 622 621" fill="none" xmlns="http://www.w3.org/2000/svg">
<path d="M310.941 620.951C278.071 620.951 245.202 620.951 212.334 620.951C200.676 620.951 189.211 618.815 178.318 614.155C163.985 608.136 152.138 598.816 142.582 586.584C110.287 545.225 77.7995 504.062 45.3124 462.704C36.7132 451.83 28.1141 440.762 19.5149 429.889C5.37375 411.637 -1.31587 391.056 0.21425 367.95C0.78649 359.213 2.88886 350.474 4.79996 341.93C18.7499 280.768 32.5101 219.798 46.0775 159.024C52.5743 130.093 68.8178 109.122 94.9994 96.3077C154.239 67.3769 213.288 38.2505 272.529 9.31965C298.137 -3.10655 323.935 -3.10655 349.542 9.31965C408.783 38.2505 468.215 67.1828 527.455 96.3077C553.254 108.928 569.497 129.899 575.803 158.248C590.518 223.294 605.042 288.341 619.565 353.386C625.68 381.152 620.329 406.589 602.939 428.918C561.662 481.927 520.193 534.74 478.534 587.36C460.953 609.496 437.639 620.563 409.738 620.757C376.87 621.146 344 620.951 310.941 620.951ZM310.941 564.448C335.019 564.448 359.289 564.448 383.367 564.448C388.526 564.448 393.686 564.06 398.845 563.088C421.013 559.011 438.977 547.944 452.927 530.081C464.776 514.934 476.623 499.984 488.279 484.839C506.243 461.927 524.397 439.016 542.361 415.91C559.75 393.58 565.866 368.338 559.75 340.572C549.432 292.806 538.539 245.04 527.646 197.274C521.149 168.927 505.097 148.15 479.298 135.336C436.492 114.171 393.494 93.2012 350.499 72.23C324.126 59.4157 297.755 59.4157 271.383 72.23C228.768 93.2012 185.962 114.171 143.156 135.142C117.166 147.956 100.922 168.732 94.4256 197.274C84.6788 240.381 74.9336 283.486 65.3782 326.591C63.4671 335.135 61.3647 343.484 60.6012 352.222C58.4988 376.493 65.5694 398.045 80.6669 417.074C109.904 454.16 139.143 491.246 168.19 528.527C186.917 552.604 211.186 564.448 241.381 564.448C264.504 564.448 287.627 564.448 310.941 564.448Z" fill="white"/>
</svg>
